<svg xmlns="http://www.w3.org/2000/svg" viewBox="0 0 374 373"><path d="M367.4 351.3h-3.3v-17.6c0-4.2-3.4-7.6-7.6-7.6H347c-2.5 0-4.6 1.2-6 3-1.4-1.8-3.6-3-6-3H311.8c-.7 0-1.4.1-2 .3-.6-.2-1.3-.3-2-.3h-12c-2 0-3.8.8-5.2 2-2.9-1.4-6.4-2.1-11-2.1H270c35.1-28.6 55.2-66.8 66.9-110.3.5-2-.2-3.4-1.5-4.8-6.6-7.7-13.8-14.9-21.4-21.5-.9-.8-2.2-1.3-2.5-2.6 16.5-2.7 24.3-6.5 33.3-16.3 5.1-5.5 9-11.9 12.5-18.5 1.5-2.8.9-4.6-1.7-6.3-7.2-4.7-14.7-8.9-22.6-12.3-4.8-2-9.8-3.5-14.9-5 .2-.4.2-.6.3-.6.5-.4 1-.7 1.6-1 18.2-10.1 30.9-25.1 38.5-44.4 9.1-23.2 10.8-47.2 7.7-71.7-.3-2.2-.3-4.6-3.2-4.8-2.9-.2-3.2 2.2-3.8 4.3-4.1 15.7-10.5 30.3-19.8 43.6C324 75.3 303.8 88.9 277 91.2c-8.8.8-17.8 2-25.2-5.4-3.1-3.1-7.7-4.3-12-5.4-2.8-.7-5.6-1.1-8.6-.4-21.7 4.4-43.4 5.3-65.2 1-3.3-.7-6.6-1.9-10.1-1.2-7.5 1.4-14.2 4.4-20 9.5-1.6 1.4-3.3 2.1-5.4 2.2-28.2 1.7-52-7.6-70.5-29.2-13-15.1-21.3-32.7-26.4-51.9-.5-2-.6-4.6-3.6-4.6-3.2.1-3.1 2.8-3.4 5-2.4 18.6-1.8 37.2 2.6 55.5 6.4 26.5 20.1 47.8 44.7 61.2.3.1.4.5.9 1-13.8 3.2-26 9.5-37.5 17.1-2.5 1.6-3.5 3.3-1.9 6.3 9.7 18.7 22.7 33 46 34.9-1.5 1.3-2.4 2-3.2 2.7-7.8 6.4-14.7 13.5-20.7 21.6-1.2 1.6-1.7 3.1-1.2 5.2 6.1 23.3 14.8 45.4 27.8 65.7 11.2 17.5 24.2 32.5 39.3 44.7-1.4.6-2.7 1.6-3.5 2.9-1.4 2.2-1.6 5-.5 7.3l3.7 7.9h-6.2c.1-.5.1-1.1.1-1.6 0-6.4-3-10.2-5.7-12.9-.3-.3-.7-.6-1.1-.9-3.4-2.3-7.4-3.3-13.1-3.3H83.4c-.5 0-1.1.1-1.6.2H67.3c-1.6 0-3.1.5-4.3 1.3-1.2-.9-2.8-1.4-4.4-1.4h-10c-2.6 0-5 1.3-6.4 3.5l-23.4 36.9c-1.5 2.3-1.6 5.3-.2 7.8 1.3 2.4 3.9 4 6.7 4h9.6c2.7 0 5.2-1.4 6.6-3.8l.8-1.3c1 3 3.9 5.1 7.2 5.1h9.4c.4 0 .7 0 1.1-.1H81.9c.5 0 .9 0 1.3-.1H96c6.9 0 11.7-.8 17-5.1.3-.2.5-.4.8-.7 1.3-1.3 2.3-2.8 3.2-4.3h9.2c1.3 0 2.6-.3 3.7-.9v3.4c0 4.2 3.4 7.6 7.6 7.6h9.5c4.2 0 7.6-3.4 7.6-7.6v-3.3c.9 1.5 2 3 3.5 4.5 4.9 5.9 12.5 6.5 15.6 6.5 6.7 0 12-2.1 16.1-6.3 1-1 1.8-2.1 2.5-3.3h6.3c.8 0 1.5-.1 2.3-.3l5.4 6.9c1.4 1.9 3.7 3 6 3h8.2c2.8 0 5.2-1.5 6.5-3.7 4 2.3 8.7 3.7 13.9 3.7h9.2c2.6 0 5-1.3 6.4-3.4l2.1-3.3c.5 3.7 3.7 6.6 7.5 6.6h12.3c6.9 0 11.7-.8 17-5.1l.1-.1c4.9 4.6 11.5 5.2 14.4 5.2 3.9 0 7.3-.7 10.3-2.1 1.4 1.3 3.3 2.2 5.3 2.2h42.2c4.2 0 7.6-3.4 7.6-7.6v-11.6c-.3-4.4-3.7-7.8-7.9-7.8z"/><path d="M125.2 218.7c11.5 12.8 20.6 26.9 24.3 44 .5 2.3 1.1 4.7 1.1 7.1.1 2.6.8 4.7 2.4 6.6 3.8 4.3 8.4 7.9 12.1 12.3 1.8 2.1 4.6 2.6 7.7 1.9 15.4-3.6 30.8-3.5 46.3-.3 5 1.1 8.7-.4 11.5-4.9 1.2-1.9 2.6-3.2 4.4-4.5 4.1-3 6.6-6.7 7.1-12.2 1.6-15.3 8.5-28.5 17.5-40.6 1.9-2.5 3.6-5.3 6-7.3 3.5-3 4.1-6.5 3.9-10.8-.4-7.8-.3-15.7-1.6-23.4-.1-.3.2-.7.3-1 2.5 6.4 2.7 13.1 4.3 19.5 2.1 8.8-.6 15.2-6.6 21.8-10.3 11.4-17.7 24.9-19.5 40.4-.9 8-4.4 13.5-10.6 18.2-2.9 2.2-4.6 5.9-8 7.9-2.5 1.4-4.8 2.2-7.9 1.4-15-3.9-30.1-4-45.1-.4-7.6 1.8-11.8-1.5-15.9-6.4-1.2-1.5-2.5-2.8-4-4-4.5-3.8-7.8-8-8.4-14.5-1.8-17.1-9.9-31.5-21-44.2-4.7-5.3-7.6-10.3-6.1-17.7 1.6-7.9 2.1-16 4.1-24.2 1.1 1.5.7 2.9.6 4.1-.4 8.1-.9 16.2-1.4 24.2-.2 2.7.5 4.8 2.5 7z"/><path d="M152.7 186.7c2.1-.1 1.9.9 1.2 2.4-1.5 2.9-3.6 5.4-6.5 8.1 5.2-.2 9.1-1.7 13-4.2 2 9.7 3.9 19.1 5.9 28.4.3 1.5-.6 2-1.5 2.7-3.3 2.7-6.4 5.8-8.9 9.3-3.6 5-6 10-3.4 16.4 1.4 3.5 1.6 7.4 1 12.3-1.5-6.9-3.1-12.7-5.7-18.3-.5-1 0-2.2.3-3.3 1.9-6.7 5.1-12.7 10-17.7 1.9-1.9 1.4-2.6-.8-3.5-7.8-3.4-14.2-8.6-19.4-15.4-4.5-5.8-6.4-12.2-5.3-19.5.3-2.1.7-4.2 1.2-7.2 5.2 6.7 11.2 10 18.9 9.5zM141.5 168.6c3.5 4.1 7.1 7.2 12.2 9.4-9.1 1.5-12.4-.9-12.2-9.4zM237.7 186.6c8.5.7 15.3-1.9 20.9-9.4 1.2 6.9 3.1 13.2.3 19.3-4.8 10.4-12.8 17.8-23.2 22.5-2.8 1.2-3.1 2-.9 4.3 2.9 2.8 5.1 6.3 6.8 10 2.5 5.2 4.3 10.3.9 16.1-1.8 3-2.3 6.8-3.6 11.2-.5-5.8.6-10.4 2-14.8.6-1.9.5-3.6-.4-5.5-2.8-6.2-6.9-11.5-12.3-15.6-1.7-1.3-2.3-2.4-1.8-4.7 2-8.8 3.7-17.8 5.5-26.9 3.8 1.8 7 4.2 11.6 3.1-2.1-3.1-4.7-5.6-5.8-9.6zM239 178c4.7-2.2 8.5-5.2 11.7-9.2 1.1 7.7-2.8 10.7-11.7 9.2z"/><path d="M234.6 239.2c1 1.6 1.7 3.4 2.1 5.1-1.4 5-2.6 9.9-2.5 15 .1 3.4.2 6.8 1.6 10 1.3 3.1-1.3 4.5-2.8 6.4-1.3 1.6-2.9 1.9-5 1-21-9.3-42.1-9.5-63.1-.2-2.3 1-4.1 1-5.8-1-1.6-1.9-3.7-3.3-2.4-6.5 2.7-7 1.9-14.2-.1-21.2-1-3.4-.4-6.2 1.5-8.9 1-1.4 2.1-2.9 3.3-4.1 2-2.1 3.8-4.7 6.5-5.7 3.1-1.2 4.5 2.4 6.9 3.5 16 7.3 31.5 7.4 46.4-2.7 2-1.4 3.2-1.3 4.8.2 3.3 2.7 6.4 5.5 8.6 9.1z"/><path d="M227.6 281.9c-.2 2.4-4 4.9-6.4 4.4-7.9-1.6-16-2.3-25.1-2.4-7.5.2-16.1.7-24.5 2.4-2.8.6-6.3-2-6.7-4.6-.2-1.3.7-1.4 1.5-1.7 12-4.3 24.5-6.1 37.2-5 6.9.6 13.8 1.8 20.3 4.2 1.4.7 3.9.1 3.7 2.7zM321.6 212.6c1.5 1.8 1.8 3.5 1.3 5.9-6.8 29.3-21.3 54.5-40.5 77.2-8.5 10.1-17.9 19.3-28.2 27.6-.7.6-1.4 1.1-2.1 1.6-.3.2-.7 0-1.4 0 18.1-25.5 32.7-52.3 38.8-83.1 3.9-19.4 4-38.7-3.3-57.5-.1-.3 0-.7 0-1.5 5.5 3.2 10.3 6.9 15 10.6 7.3 5.7 14.5 11.7 20.4 19.2zM320.3 143.8c3.7-5.8 3.6-5.9 10.1-3.2 5.7 2.4 11.1 5.5 16.4 8.7 1.5.9 2.3 1.7 1.3 3.6-6.7 11.7-15.4 21.2-29.2 24.1-15.1 3.2-28.7-.4-41.4-10.4 19.3.8 33-7.4 42.8-22.8zM254.6 120.9c.1-2.9.7-5.8 1.6-8.5 3-9.6 3.4-9.9 13.1-10.3 25.9-1 49.2-8.7 67.7-27.7 8.8-9 15.4-19.5 20.3-31.2-1.5 24.5-9.5 46.2-27.5 63.5-11.5 11.1-25.3 18.1-40.9 21.5 22.8-10 42.4-23.7 55.5-46.3-1.7 0-2.1.7-2.6 1.3-20.7 22.4-46.8 34.8-76.4 40.4-2.2.4-4.6.3-6.7 1.1-4.1 1.3-4.2-1-4.1-3.8zM158.8 146.8c-4.8-7.8-8.7-15.8-9-25.3-.2-7.4-2.8-14.4-7.2-20.5-1.4-2-1.3-3.4.3-4.9 5.8-5.4 11.7-9.7 20.6-7.6 9.8 2.3 19.9 3.6 30 3.8 12.6.3 24.9-1.8 37.2-4.2 6.3-1.2 17.1 4 19.8 9.6.6 1.2-.1 1.9-.6 2.7-5.7 8.3-8 17.7-8.1 27.6 0 3.1-1.4 5.6-2.6 8.2-3.2 6.9-7.3 13.3-12 19.8 2 .1 2.9-1 3.9-1.8 4.8-4.2 9.2-8.7 12.5-14.2 1.1-1.9 2.2-2.4 4.2-1.1 5.6 3.7 8.7 8.9 10 15.7-5.8-3.9-5.8-3.8-9.4 2.1-4.2 7-9.5 13.1-16.7 17.4-3 1.8-5.7 2.6-9 .3-3.6-2.5-8-3.6-13.1-4.3 5.8 5.4 9.7 11.2 11.6 18.2 3 11.3 2 22.6-.9 33.7-.6 2.2-2.3 3.6-4.2 4.7-12.6 6.6-25.5 6.5-38.4.9-3.7-1.6-5.8-4.5-6.6-8.6-2.7-13.2-3.3-26.1 3.1-38.5 2-3.9 5-6.9 8.3-10.4-5.3.7-9.9 2.2-14 4.7-2.4 1.5-4.4 1.3-6.7 0-8.4-4.6-14.3-11.6-19-19.7-2.7-4.7-2.7-4.7-7-1.2-.3.2-.6.3-1.3.6 1.3-7 4.7-12.1 10.4-15.8 2.1-1.3 2.8-.1 3.8 1.5 3.9 6.1 8.5 11.7 14.7 15.6l.5-.5c-1.1-3.3-3.4-5.7-5.1-8.5zM35.5 43.1c5 12.5 11.8 23.3 21.1 32.4 16.2 15.9 36 23.9 58.4 25.9 4.7.4 9.4.5 14 .6 1.6 0 2.6.4 3.4 1.8 3.5 5.7 5.5 11.9 5.4 18.7 0 1.9-.5 2.7-2.7 2.3-32.1-4.6-60.5-16.6-83.3-40.5-.5-.5-1.1-1-1.7-1.5-.1-.1-.4.1-1.2.2 6 10.6 14 19.2 23.3 26.6 9.3 7.4 19.6 13.1 30.3 18.1-36.3-6.1-71.3-50.4-67-84.6zM45.2 154.2c-1.4-2.3-1.5-3.8 1.2-5.4 6.3-3.6 12.6-7 19.3-9.8 2.4-1 3.6-.8 4.9 1.8 6.7 12.5 16.7 21.1 30.6 24.7 3.9 1 7.9 1 12.9 1.5-7.3 6.1-14.9 9.1-23.2 10.3-22.1 3.6-36.2-7.1-45.7-23.1zM70 218.4c-.6-2.6 0-4.3 1.5-6.2 10-12.1 22.6-20.9 35.5-29.6-4.8 11.9-6.5 24.3-6.2 36.8.3 14.3 3.1 28.3 7.7 41.9 7.5 22.4 19 42.7 32.5 61.9.4.6.8 1.2 1.3 2-1.5.9-2.2-.4-3-1-35.5-27.1-59.2-62-69.3-105.8z"/><path fill="#C82136" d="M164 155.1c-1.2-3.1-3.5-5.6-5.2-8.4-4.8-7.8-8.7-15.8-9-25.3-.2-7.4-2.8-14.4-7.2-20.5-1.4-2-1.3-3.4.3-4.9 5.8-5.4 11.7-9.7 20.6-7.6 9.8 2.3 19.9 3.6 30 3.8 12.6.3 24.9-1.8 37.2-4.2 6.3-1.2 17.1 4 19.8 9.6.6 1.2-.1 1.9-.6 2.7-5.7 8.3-8 17.7-8.1 27.6 0 3.1-1.4 5.6-2.6 8.2-3.2 6.9-7.3 13.3-12 19.8 2 .1 2.9-1 3.9-1.8 4.8-4.2 9.2-8.7 12.5-14.2 1.1-1.9 2.2-2.4 4.2-1.1 5.6 3.7 8.7 8.9 10 15.7-5.8-3.9-5.8-3.8-9.4 2.1-4.2 7-9.5 13.1-16.7 17.4-3 1.8-5.7 2.6-9 .3-3.6-2.5-8-3.6-13.1-4.3 5.8 5.4 9.7 11.2 11.6 18.2 3 11.3 2 22.6-.9 33.7-.6 2.2-2.3 3.6-4.2 4.7-12.6 6.6-25.5 6.5-38.4.9-3.7-1.6-5.8-4.5-6.6-8.6-2.7-13.2-3.3-26.1 3.1-38.5 2-3.9 5-6.9 8.3-10.4-5.3.7-9.9 2.2-14 4.7-2.4 1.5-4.4 1.3-6.7 0-8.4-4.6-14.3-11.6-19-19.7-2.7-4.7-2.7-4.7-7-1.2-.3.2-.6.3-1.3.6 1.3-7 4.7-12.1 10.4-15.8 2.1-1.3 2.8-.1 3.8 1.5 3.9 6.1 8.5 11.7 14.7 15.6l.9.6.9.9c.1-.1.2-.3.3-.4-.4-.2-.7-.4-1.1-.6-.1-.4-.2-.7-.4-1.1z"/><path fill="#C82136" d="M172 96.4c13.2 9.7 19.9 23.3 24 39.4 4.2-16.1 10.8-29.7 24-39.4-16 4.1-31.9 4.1-48 0zM107 182.6c-4.8 11.9-6.5 24.3-6.2 36.8.3 14.3 3.1 28.3 7.7 41.9 7.5 22.4 19 42.7 32.5 61.9.4.6.8 1.2 1.3 2-1.5.9-2.2-.4-3-1-35.6-27.1-59.3-62.1-69.4-105.9-.6-2.6 0-4.3 1.5-6.2 10.1-11.9 22.7-20.7 35.6-29.5zM250.7 324.9c18.1-25.5 32.7-52.3 38.8-83.1 3.9-19.4 4-38.7-3.3-57.5-.1-.3 0-.7 0-1.5 5.5 3.2 10.3 6.9 15 10.6 7.4 5.8 14.6 11.8 20.4 19.2 1.5 1.8 1.8 3.5 1.3 5.9-6.8 29.3-21.3 54.5-40.5 77.2-8.5 10.1-17.9 19.3-28.2 27.6-.7.6-1.4 1.1-2.1 1.6-.3.1-.8 0-1.4 0zM236.7 244.3c-1.4 5-2.6 9.9-2.5 15 .1 3.4.2 6.8 1.6 10 1.3 3.1-1.3 4.5-2.8 6.4-1.3 1.6-2.9 1.9-5 1-21-9.3-42.1-9.5-63.1-.2-2.3 1-4.1 1-5.8-1-1.6-1.9-3.7-3.3-2.4-6.5 2.7-7 1.9-14.2-.1-21.2-1-3.4-.4-6.2 1.5-8.9 1-1.4 2.1-2.9 3.3-4.1 2-2.1 3.8-4.7 6.5-5.7 3.1-1.2 4.5 2.4 6.9 3.5 16 7.3 31.5 7.4 46.4-2.7 2-1.4 3.2-1.3 4.8.2 3.2 2.7 6.2 5.6 8.5 9.1 1.1 1.6 1.8 3.4 2.2 5.1z"/><path fill="#C82136" d="M187.5 257.5c-5.7-4.2-10.3-9.2-13.2-15.5-2.6-5.4-3.1-5.6-7.4-1.1-1 1-1.9 2.1-2.6 3.3-2.6 4.2-2.3 5.9 1.8 8.8 6.4 4.5 13.8 4.7 21.4 4.5zM204.5 257.9c6.1.1 11.1-.3 16.1-1.9 4.1-1.3 8.7-3 9.5-7.3.8-4.5-3.5-7.5-6.7-10.3-1.7-1.4-2.8-1.7-3.7 1-1 3.4-2.9 6.5-5.1 9.2-2.8 3.3-6 6.1-10.1 9.3z"/><path fill="#FDFDFD" d="M344.3 81.8c-1.7 0-2.1.7-2.6 1.3-20.7 22.4-46.8 34.8-76.4 40.4-2.2.4-4.6.3-6.7 1.1-4 1.4-4.1-.9-4-3.7.1-2.9.7-5.8 1.6-8.5 3-9.6 3.4-9.9 13.1-10.3 25.9-1 49.2-8.7 67.7-27.7 8.8-9 15.4-19.5 20.3-31.2-1.5 24.5-9.5 46.2-27.5 63.5-11.5 11.1-25.3 18.1-40.9 21.5 22.7-10.1 42.3-23.7 55.4-46.4zM102.7 127.8c-36.5-6.1-71.5-50.4-67.1-84.7 5 12.5 11.8 23.3 21.1 32.4 16.2 15.9 36 23.9 58.4 25.9 4.7.4 9.4.5 14 .6 1.6 0 2.6.4 3.4 1.8 3.5 5.7 5.5 11.9 5.4 18.7 0 1.9-.5 2.7-2.7 2.3-32.1-4.6-60.5-16.6-83.3-40.5-.5-.5-1.1-1-1.7-1.5-.1-.1-.4.1-1.2.2 6 10.6 14 19.2 23.3 26.6 9.4 7.5 19.7 13.2 30.4 18.2z"/><path fill="#FDFDFD" d="M49.5 82l-.3-.3c-.1.2-.2.3-.2.5 0 .1.2.2.2.2.1-.1.2-.2.3-.4z"/><path fill="#C82136" d="M277.5 166.7c19.3.7 33.1-7.4 42.8-22.8 3.7-5.8 3.6-5.9 10.1-3.2 5.7 2.4 11.1 5.5 16.4 8.7 1.5.9 2.3 1.7 1.3 3.6-6.7 11.7-15.4 21.2-29.2 24.1-15.1 3.1-28.7-.5-41.4-10.4zM114.1 167.2c-7.3 6.1-14.9 9.1-23.2 10.3-22.2 3.4-36.3-7.3-45.8-23.3-1.4-2.3-1.5-3.8 1.2-5.4 6.3-3.6 12.6-7 19.3-9.8 2.4-1 3.6-.8 4.9 1.8 6.7 12.5 16.7 21.1 30.6 24.7 4 1.1 8 1.2 13 1.7zM268.2 185.4c2.5 6.4 2.7 13.1 4.3 19.5 2.1 8.8-.6 15.2-6.6 21.8-10.3 11.4-17.7 24.9-19.5 40.4-.9 8-4.4 13.5-10.6 18.2-2.9 2.2-4.6 5.9-8 7.9-2.5 1.4-4.8 2.2-7.9 1.4-15-3.9-30.1-4-45.1-.4-7.6 1.8-11.8-1.5-15.9-6.4-1.2-1.5-2.5-2.8-4-4-4.5-3.8-7.8-8-8.4-14.5-1.8-17.1-9.9-31.5-21-44.2-4.7-5.3-7.6-10.3-6.1-17.7 1.6-7.9 2.1-16 4.1-24.2 1.1 1.5.7 2.9.6 4.1-.4 8.1-.9 16.2-1.4 24.2-.2 2.8.5 4.9 2.5 7.1 11.5 12.8 20.6 26.9 24.3 44 .5 2.3 1.1 4.7 1.1 7.1.1 2.6.8 4.7 2.4 6.6 3.8 4.3 8.4 7.9 12.1 12.3 1.8 2.1 4.6 2.6 7.7 1.9 15.4-3.6 30.8-3.5 46.3-.3 5 1.1 8.7-.4 11.5-4.9 1.2-1.9 2.6-3.2 4.4-4.5 4.1-3 6.6-6.7 7.1-12.2 1.6-15.3 8.5-28.5 17.5-40.6 1.9-2.5 3.6-5.3 6-7.3 3.5-3 4.1-6.5 3.9-10.8-.4-7.8-.3-15.7-1.6-23.4-.1-.4.2-.8.3-1.1z"/><path fill="#C82136" d="M239 260.6c-.5-5.8.6-10.4 2-14.8.6-1.9.5-3.6-.4-5.5-2.8-6.2-6.9-11.5-12.3-15.6-1.7-1.3-2.3-2.4-1.8-4.7 2-8.8 3.7-17.8 5.5-26.9 3.8 1.8 7 4.2 11.6 3.1-2.2-3.1-4.8-5.6-5.9-9.6 8.5.7 15.3-1.9 20.9-9.4 1.2 6.9 3.1 13.2.3 19.3-4.8 10.4-12.8 17.8-23.2 22.5-2.8 1.2-3.1 2-.9 4.3 2.9 2.8 5.1 6.3 6.8 10 2.5 5.2 4.3 10.3.9 16.1-1.7 3-2.2 6.8-3.5 11.2zM133.8 177.3c5.2 6.6 11.2 9.9 18.9 9.4 2.1-.1 1.9.9 1.2 2.4-1.5 2.9-3.6 5.4-6.5 8.1 5.2-.2 9.1-1.7 13-4.2 2 9.7 3.9 19.1 5.9 28.4.3 1.5-.6 2-1.5 2.7-3.3 2.7-6.4 5.8-8.9 9.3-3.6 5-6 10-3.4 16.4 1.4 3.5 1.6 7.4 1 12.3-1.5-6.9-3.1-12.7-5.7-18.3-.5-1 0-2.2.3-3.3 1.9-6.7 5.1-12.7 10-17.7 1.9-1.9 1.4-2.6-.8-3.5-7.8-3.4-14.2-8.6-19.4-15.4-4.5-5.8-6.4-12.2-5.3-19.5.3-2.1.7-4.1 1.2-7.1zM196.1 284c-7.5.2-16.1.7-24.5 2.4-2.8.6-6.3-2-6.7-4.6-.2-1.3.7-1.4 1.5-1.7 12-4.3 24.5-6.1 37.2-5 6.9.6 13.8 1.8 20.3 4.2 1.4.5 4 0 3.8 2.6-.2 2.4-4 4.9-6.4 4.4-8-1.5-16.1-2.2-25.2-2.3z"/><path fill="#FDFDFD" d="M153.7 178c-9.1 1.5-12.4-.9-12.2-9.4 3.6 4 7.1 7.2 12.2 9.4zM250.7 168.9c1.2 7.6-2.8 10.7-11.7 9.2 4.7-2.3 8.4-5.3 11.7-9.2z"/><path fill="#232323" d="M164.5 156.2c.4.2.7.4 1.1.6-.1.1-.2.3-.3.4l-.9-.9.1-.1zM164 155.1c.2.3.3.7.5 1l-.1.1-.9-.6c.2-.1.3-.3.5-.5zM49.5 82c-.1.2-.2.3-.3.5-.1-.1-.3-.2-.2-.2 0-.2.2-.3.2-.5.1 0 .2.1.3.2z"/><path d="M196 135.8c4.2-16.1 10.8-29.7 24-39.4-16 4.1-32 4.1-48.1 0 13.3 9.7 20 23.3 24.1 39.4zM174.2 241.9c-2.6-5.4-3.1-5.6-7.4-1.1-1 1-1.9 2.1-2.6 3.3-2.6 4.2-2.3 5.9 1.8 8.8 6.4 4.6 13.8 4.8 21.4 4.6-5.6-4.3-10.2-9.2-13.2-15.6zM219.6 239.4c-1 3.4-2.9 6.5-5.1 9.2-2.7 3.3-5.9 6.1-10 9.2 6.1.1 11.1-.3 16.1-1.9 4.1-1.3 8.7-3 9.5-7.3.8-4.5-3.5-7.5-6.7-10.3-1.8-1.3-2.9-1.6-3.8 1.1z"/><path fill="#FFF" d="M48.5 334h10.1v36.9h-9.4V346.7l-6.7 11.4-4.7 7.4-3.1 5.4h-9.6zM75.4 334.1h6.1v36.7h-21v-11.5h8.1v2.7H72v-19.7h-4.7v-8.2H72zM111.3 359.1c0 3.4-1.4 6.1-3.4 8.2-3.4 2.7-6.1 3.4-12.3 3.4H83.4v-8.2h14.3c.2 0 .5 0 .8-.1.5-.1 1.2-.2 1.9-.5.7-.7 1.4-1.4 1.4-2.7 0-2-.7-2.7-1.4-3.4h-17v-8.2H99c.7-.7 1.4-1.4 1.4-2.7 0-1.4-.6-2-1.4-2.7H83.4V334H97c4.1 0 6.8.6 8.8 2 2.1 2.1 3.4 4.1 3.4 7.5 0 2.7-1.4 5.5-4.1 7.6 5.6 1.8 6.2 6.7 6.2 8zM112.1 352.6h13.8v8h-13.8zM147.4 333.9h10.2l-10.9 23.2v13.7h-9.6v-13.7l-10.9-23.2h16.4v6.8h-3.4l2.7 8.2zM187.5 334v21.4c0 6-1.4 9.3-3.4 11.3-2.7 2.7-6 4-10.7 4-2.6 0-7.4-.6-10-4-3.4-3.3-4-6-4-11.3V334H171.5v8.1h-2.7v13.4c0 1.4 0 3.3.7 4.7.6 1.3 2 2.7 3.9 2.7 2.7 0 3.3-1.3 4-2.7.7-1.3.7-2.7.7-4.7V342h-2.7v-8H187.5zM215.4 334h4.8v36.8H212l-13.7-17.7v8.1h-8.8V334h8.2l14.3 16.4-.7-8.2h-3.4V334h3.4zM263.5 349.8l-13.7 21h-9.2c-11.1 0-19-8.5-19-18.4 0-11.1 8.5-18.4 19-18.4h21.6l-7.8 7.9H240c-3.9 0-9.2 3.3-9.2 10.5s5.3 10.5 9.8 10.5c2 0 3.9-.6 5.3-2 1.3-.7 2.6-2 2.6-3.9h-3.2l-7.2-7.3H263.5zM293.7 359.1c0 3.4-1.4 6.1-3.4 8.2-3.4 2.7-6.1 3.4-12.3 3.4h-12.3v-8.2H280c.2 0 .5 0 .8-.1.5-.1 1.2-.2 1.9-.5.7-.7 1.4-1.4 1.4-2.7 0-2-.7-2.7-1.4-3.4h-17.1v-8.2H281.2c.7-.7 1.4-1.4 1.4-2.7 0-1.4-.6-2-1.4-2.7H265.6V334h13.7c4.1 0 6.8.6 8.8 2 2.1 2.1 3.4 4.1 3.4 7.5 0 2.7-1.4 5.5-4.1 7.6 5.7 1.8 6.3 6.7 6.3 8zM323.7 334v21.4c0 6-1.4 9.3-3.4 11.3-2.7 2.7-6 4-10.7 4-2.6 0-7.4-.6-10-4-3.4-3.3-4-6-4-11.3V334H307.7v8.1H305v13.4c0 1.4 0 3.3.7 4.7.6 1.3 2 2.7 3.9 2.7 2.7 0 3.3-1.3 4-2.7.7-1.3.7-2.7.7-4.7V342h-2.7v-8H323.7zM337.5 359.2h8.2v11.6h-20.4V334h9.5v28.6h2.7zM359.1 359.2h8.2v11.6h-20.4V334h9.5v28.6h2.7z"/></svg>