<?xml version="1.0" encoding="utf-8"?>
<!-- Generator: Adobe Illustrator 24.1.2, SVG Export Plug-In . SVG Version: 6.00 Build 0)  -->
<svg version="1.1" id="Layer_1" xmlns="http://www.w3.org/2000/svg" xmlns:xlink="http://www.w3.org/1999/xlink" x="0px" y="0px"
	 viewBox="0 0 384 383" style="enable-background:new 0 0 384 383;" xml:space="preserve">
<style type="text/css">
	.st0{fill:#FFFFFF;}
</style>
<path class="st0" d="M361.8,382.6H23.2C11,382.6,1,372.7,1,360.4v-338C1,10.2,11,0.3,23.2,0.3h338.6c12.2,0,22.1,9.9,22.1,22.1v338
	C384,372.7,374,382.6,361.8,382.6z M275.1,91.1c0-5.4-4.6-9.2-9.9-8.2c-10.7,2-21.3,4.1-32,6.1c-13.1,2.5-26.3,4.9-39.4,7.4
	c-13.3,2.5-26.5,5.2-39.8,7.5c-8.5,1.4-11.6,6.8-11.6,13.9c0.2,35.7,0.1,71.5,0.1,107.2c0,4.6-2.3,7.6-6.7,8.7c-9,2.3-18,4.7-27,6.8
	c-6.6,1.6-12.3,4.4-17,9.5c-7.8,8.5-9.7,21.9-4.2,31.9c5.6,10.3,14.7,15.4,26.2,16.2c11.2,0.8,21.3-2.5,29.9-9.7
	c10.4-8.7,15.5-20,15.5-33.5c0-28.6,0.1-57.1,0-85.7c0-6.9,4.6-11.5,10.2-12.5c15.3-2.8,30.6-5.9,45.9-8.9c11-2.1,21.9-4.3,32.9-6.4
	c6.1-1.2,10.6,2.5,10.6,8.8c0,16.6,0,33.2,0,49.8c0,4.6-2.4,7.7-6.8,8.8c-7.7,2-15.4,3.9-23.1,5.9c-4.2,1.1-8.6,1.9-12.5,3.9
	c-18.2,9.5-22.1,35.9-3,49c7.9,5.4,16.6,6.6,25.9,5.3c20.5-3.1,36.1-21,36.1-41.8c0-23,0-46.1,0-69.1
	C275.1,138.4,275.1,114.8,275.1,91.1z"/>
</svg>
