<?xml version="1.0" encoding="utf-8"?>
<!-- Generator: Adobe Illustrator 24.1.2, SVG Export Plug-In . SVG Version: 6.00 Build 0)  -->
<svg version="1.1" id="Layer_1" xmlns="http://www.w3.org/2000/svg" xmlns:xlink="http://www.w3.org/1999/xlink" x="0px" y="0px"
	 viewBox="0 0 384 383" enable-background="new 0 0 384 383" xml:space="preserve">
<g display="none">
	<path display="inline" d="M-80.6,483H-84v-17.3c0,0-3.4-7.6-7.6-7.7h-9.5c-2.5,0.1-4.6,1.3-6,3.1c-1.4-1.8-3.6-3-6-3.1h-9.5
		c-0.3,0.1-0.5,0.1-0.8,0.1c-0.3,0-0.5,0-0.8-0.1h-12.1c-0.7,0.1-1.4,0.2-2,0.3c-0.6-0.2-1.3-0.3-2-0.3h-12c-2,0.1-3.8,0.9-5.2,2.1
		c-2.9-1.4-11-1.1-11-1.1l-9.5-1c0,0,55.2-66.7,66.9-110.3c0.5-2-0.2-3.4-1.5-4.8c-6.6-7.7-13.8-14.9-21.4-21.5
		c-0.9-0.8-2.2-1.3-2.5-2.6c16.5-2.7,24.3-6.5,33.3-16.3c5.1-5.5,9-11.9,12.5-18.5c1.5-2.8,0.9-4.6-1.7-6.3
		c-7.2-4.7-14.7-8.9-22.6-12.3c-4.8-2-9.8-3.5-14.9-5c0.2-0.4,0.2-0.6,0.3-0.6c0.5-0.4,1-0.7,1.6-1c18.2-10.1,30.9-25.1,38.5-44.4
		c9.1-23.2,10.8-47.2,7.7-71.7c-0.3-2.2-0.3-4.6-3.2-4.8c-2.9-0.2-3.2,2.2-3.8,4.3c-4.1,15.7-10.5,30.3-19.8,43.6
		c-15.2,21.6-35.4,35.2-62.2,37.5c-8.8,0.8-17.8,2-25.2-5.4c-3.1-3.1-7.7-4.3-12-5.4c-2.8-0.7-5.6-1.1-8.6-0.4
		c-21.7,4.4-43.4,5.3-65.2,1c-3.3-0.7-6.6-1.9-10.1-1.2c-7.5,1.4-14.2,4.4-20,9.5c-1.6,1.4-3.3,2.1-5.4,2.2
		c-28.2,1.7-52-7.6-70.5-29.2c-13-15.1-21.3-32.7-26.4-51.9c-0.5-2-0.6-4.6-3.6-4.6c-3.2,0.1-3.1,2.8-3.4,5
		c-2.4,18.6-1.8,37.2,2.6,55.5c6.4,26.5,20.1,47.8,44.7,61.2c0.3,0.1,0.4,0.5,0.9,1c-13.8,3.2-26,9.5-37.5,17.1
		c-2.5,1.6-3.5,3.3-1.9,6.3c9.7,18.7,22.7,33,46,34.9c-1.5,1.3-2.4,2-3.2,2.7c-7.8,6.4-14.7,13.5-20.7,21.6
		c-1.2,1.6-1.7,3.1-1.2,5.2c6.1,23.3,14.8,45.4,27.8,65.7c11.2,17.5,24.2,32.5,39.3,44.7c-1.4,0.6-2.7,1.6-3.5,2.9
		c-1.4,2.2-1.6,5-0.5,7.3l3.7,8.1h-6.2c0.1-0.8,0.1-1.3,0.1-1.9c0-6.4-3-10.2-5.7-12.9c-0.3-0.3-0.7-0.6-1.1-0.9
		c-3.4-2.3-13.1-3.4-13.1-3.4h-13.7c0,0-1.1,0.1-1.6,0.2c-0.1,0-0.3,0.8-0.3,0.8h-14.2c0,0-3.1-0.3-4.3,0.5
		c-1.2-0.9-4.4-1.5-4.4-1.5h-10.1c-2.6,0-5,1.3-6.4,3.5l-23.4,36.8c-1.9,3-1.5,7,1.2,9.6c1.4,1.4,3.4,2,5.4,2l9.4,0
		c0,0,5.2-1.2,6.6-3.6l0.8-1.3c1,3,3.9,5.1,7.2,4.9h9.4c0.4,0.2,0.7,0.2,1.1,0.1c0.3,0,0.8,0.9,0.8,0.9h21.1c0,0,0.9-0.9,1.3-1
		c0.2,0,0.5,0,0.5,0h12.3c6.9,0,11.6-0.8,16.9-5c0.3-0.2,0.5-0.4,0.7-0.7c1.3-1.3,2.3-2.8,3.2-4.3h8.7c1.3,0,2.6-0.3,3.7-0.9v3.3
		c0,4.2,3.4,7.6,7.6,7.6h9.8c4.2,0,7.6-3.4,7.6-7.6v-3.9c0.9,1.6,2.1,3.1,3.6,4.6c5.1,6.1,13.1,6.8,16.3,6.8c7,0,12.5-2.2,16.8-6.5
		c1-1,1.9-2.2,2.6-3.4h6.6c0.8,0,1.6-0.1,2.4-0.4l5.6,7.3c1.5,2,3.8,3.1,6.3,3.1h6c0,0,5.2-1.3,6.5-3.5c4,2.3,8.7,3.7,13.9,3.5h9.2
		c2.6,0.2,5-1.1,6.4-3.3l2.1-3.3c0.5,3.7,3.7,6.6,7.5,7.5h12.3c6.9-0.9,11.7-1.7,17-6c0,0,0.1-0.1,0.1-0.1
		c4.9,4.6,11.5,5.2,14.4,5.2c3.9,0,7.3-0.7,10.3-2.1c1.4,1.3,5.3,2,5.3,2h20.3c0.2,0,0.4,0,0.6,0c0.2,0,0.4,0,0.6,0h20.6
		c4.2,0,7.6-3.4,7.6-7.6v-11.8C-73,486.4-76.4,483-80.6,483z"/>
	<path display="inline" d="M-322.8,350.7c11.5,12.8,20.6,26.9,24.3,44c0.5,2.3,1.1,4.7,1.1,7.1c0.1,2.6,0.8,4.7,2.4,6.6
		c3.8,4.3,8.4,7.9,12.1,12.3c1.8,2.1,4.6,2.6,7.7,1.9c15.4-3.6,30.8-3.5,46.3-0.3c5,1.1,8.7-0.4,11.5-4.9c1.2-1.9,2.6-3.2,4.4-4.5
		c4.1-3,6.6-6.7,7.1-12.2c1.6-15.3,8.5-28.5,17.5-40.6c1.9-2.5,3.6-5.3,6-7.3c3.5-3,4.1-6.5,3.9-10.8c-0.4-7.8-0.3-15.7-1.6-23.4
		c-0.1-0.3,0.2-0.7,0.3-1c2.5,6.4,2.7,13.1,4.3,19.5c2.1,8.8-0.6,15.2-6.6,21.8c-10.3,11.4-17.7,24.9-19.5,40.4
		c-0.9,8-4.4,13.5-10.6,18.2c-2.9,2.2-4.6,5.9-8,7.9c-2.5,1.4-4.8,2.2-7.9,1.4c-15-3.9-30.1-4-45.1-0.4c-7.6,1.8-11.8-1.5-15.9-6.4
		c-1.2-1.5-2.5-2.8-4-4c-4.5-3.8-7.8-8-8.4-14.5c-1.8-17.1-9.9-31.5-21-44.2c-4.7-5.3-7.6-10.3-6.1-17.7c1.6-7.9,2.1-16,4.1-24.2
		c1.1,1.5,0.7,2.9,0.6,4.1c-0.4,8.1-0.9,16.2-1.4,24.2C-325.5,346.4-324.8,348.5-322.8,350.7z"/>
	<path display="inline" d="M-295.3,318.7c2.1-0.1,1.9,0.9,1.2,2.4c-1.5,2.9-3.6,5.4-6.5,8.1c5.2-0.2,9.1-1.7,13-4.2
		c2,9.7,3.9,19.1,5.9,28.4c0.3,1.5-0.6,2-1.5,2.7c-3.3,2.7-6.4,5.8-8.9,9.3c-3.6,5-6,10-3.4,16.4c1.4,3.5,1.6,7.4,1,12.3
		c-1.5-6.9-3.1-12.7-5.7-18.3c-0.5-1,0-2.2,0.3-3.3c1.9-6.7,5.1-12.7,10-17.7c1.9-1.9,1.4-2.6-0.8-3.5c-7.8-3.4-14.2-8.6-19.4-15.4
		c-4.5-5.8-6.4-12.2-5.3-19.5c0.3-2.1,0.7-4.2,1.2-7.2C-309,315.9-303,319.2-295.3,318.7z"/>
	<path display="inline" d="M-306.5,300.6c3.5,4.1,7.1,7.2,12.2,9.4C-303.4,311.5-306.7,309.1-306.5,300.6z"/>
	<path display="inline" d="M-210.3,318.6c8.5,0.7,15.3-1.9,20.9-9.4c1.2,6.9,3.1,13.2,0.3,19.3c-4.8,10.4-12.8,17.8-23.2,22.5
		c-2.8,1.2-3.1,2-0.9,4.3c2.9,2.8,5.1,6.3,6.8,10c2.5,5.2,4.3,10.3,0.9,16.1c-1.8,3-2.3,6.8-3.6,11.2c-0.5-5.8,0.6-10.4,2-14.8
		c0.6-1.9,0.5-3.6-0.4-5.5c-2.8-6.2-6.9-11.5-12.3-15.6c-1.7-1.3-2.3-2.4-1.8-4.7c2-8.8,3.7-17.8,5.5-26.9c3.8,1.8,7,4.2,11.6,3.1
		C-206.6,325.1-209.2,322.6-210.3,318.6z"/>
	<path display="inline" d="M-209,310c4.7-2.2,8.5-5.2,11.7-9.2C-196.2,308.5-200.1,311.5-209,310z"/>
	<path display="inline" d="M-213.4,371.2c1,1.6,1.7,3.4,2.1,5.1c-1.4,5-2.6,9.9-2.5,15c0.1,3.4,0.2,6.8,1.6,10
		c1.3,3.1-1.3,4.5-2.8,6.4c-1.3,1.6-2.9,1.9-5,1c-21-9.3-42.1-9.5-63.1-0.2c-2.3,1-4.1,1-5.8-1c-1.6-1.9-3.7-3.3-2.4-6.5
		c2.7-7,1.9-14.2-0.1-21.2c-1-3.4-0.4-6.2,1.5-8.9c1-1.4,2.1-2.9,3.3-4.1c2-2.1,3.8-4.7,6.5-5.7c3.1-1.2,4.5,2.4,6.9,3.5
		c16,7.3,31.5,7.4,46.4-2.7c2-1.4,3.2-1.3,4.8,0.2C-218.7,364.8-215.6,367.6-213.4,371.2z"/>
	<path display="inline" d="M-220.4,413.9c-0.2,2.4-4,4.9-6.4,4.4c-7.9-1.6-16-2.3-25.1-2.4c-7.5,0.2-16.1,0.7-24.5,2.4
		c-2.8,0.6-6.3-2-6.7-4.6c-0.2-1.3,0.7-1.4,1.5-1.7c12-4.3,24.5-6.1,37.2-5c6.9,0.6,13.8,1.8,20.3,4.2
		C-222.7,411.9-220.2,411.3-220.4,413.9z"/>
	<path display="inline" d="M-126.4,344.6c1.5,1.8,1.8,3.5,1.3,5.9c-6.8,29.3-21.3,54.5-40.5,77.2c-8.5,10.1-17.9,19.3-28.2,27.6
		c-0.7,0.6-1.4,1.1-2.1,1.6c-0.3,0.2-0.7,0-1.4,0c18.1-25.5,32.7-52.3,38.8-83.1c3.9-19.4,4-38.7-3.3-57.5c-0.1-0.3,0-0.7,0-1.5
		c5.5,3.2,10.3,6.9,15,10.6C-139.5,331.1-132.3,337.1-126.4,344.6z"/>
	<path display="inline" d="M-127.7,275.8c3.7-5.8,3.6-5.9,10.1-3.2c5.7,2.4,11.1,5.5,16.4,8.7c1.5,0.9,2.3,1.7,1.3,3.6
		c-6.7,11.7-15.4,21.2-29.2,24.1c-15.1,3.2-28.7-0.4-41.4-10.4C-151.2,299.4-137.5,291.2-127.7,275.8z"/>
	<path display="inline" d="M-193.4,252.9c0.1-2.9,0.7-5.8,1.6-8.5c3-9.6,3.4-9.9,13.1-10.3c25.9-1,49.2-8.7,67.7-27.7
		c8.8-9,15.4-19.5,20.3-31.2c-1.5,24.5-9.5,46.2-27.5,63.5c-11.5,11.1-25.3,18.1-40.9,21.5c22.8-10,42.4-23.7,55.5-46.3
		c-1.7,0-2.1,0.7-2.6,1.3c-20.7,22.4-46.8,34.8-76.4,40.4c-2.2,0.4-4.6,0.3-6.7,1.1C-193.4,258-193.5,255.7-193.4,252.9z"/>
	<path display="inline" d="M-289.2,278.8c-4.8-7.8-8.7-15.8-9-25.3c-0.2-7.4-2.8-14.4-7.2-20.5c-1.4-2-1.3-3.4,0.3-4.9
		c5.8-5.4,11.7-9.7,20.6-7.6c9.8,2.3,19.9,3.6,30,3.8c12.6,0.3,24.9-1.8,37.2-4.2c6.3-1.2,17.1,4,19.8,9.6c0.6,1.2-0.1,1.9-0.6,2.7
		c-5.7,8.3-8,17.7-8.1,27.6c0,3.1-1.4,5.6-2.6,8.2c-3.2,6.9-7.3,13.3-12,19.8c2,0.1,2.9-1,3.9-1.8c4.8-4.2,9.2-8.7,12.5-14.2
		c1.1-1.9,2.2-2.4,4.2-1.1c5.6,3.7,8.7,8.9,10,15.7c-5.8-3.9-5.8-3.8-9.4,2.1c-4.2,7-9.5,13.1-16.7,17.4c-3,1.8-5.7,2.6-9,0.3
		c-3.6-2.5-8-3.6-13.1-4.3c5.8,5.4,9.7,11.2,11.6,18.2c3,11.3,2,22.6-0.9,33.7c-0.6,2.2-2.3,3.6-4.2,4.7
		c-12.6,6.6-25.5,6.5-38.4,0.9c-3.7-1.6-5.8-4.5-6.6-8.6c-2.7-13.2-3.3-26.1,3.1-38.5c2-3.9,5-6.9,8.3-10.4c-5.3,0.7-9.9,2.2-14,4.7
		c-2.4,1.5-4.4,1.3-6.7,0c-8.4-4.6-14.3-11.6-19-19.7c-2.7-4.7-2.7-4.7-7-1.2c-0.3,0.2-0.6,0.3-1.3,0.6c1.3-7,4.7-12.1,10.4-15.8
		c2.1-1.3,2.8-0.1,3.8,1.5c3.9,6.1,8.5,11.7,14.7,15.6c0.2-0.2,0.3-0.3,0.5-0.5C-285.2,284-287.5,281.6-289.2,278.8z"/>
	<path display="inline" d="M-412.5,175.1c5,12.5,11.8,23.3,21.1,32.4c16.2,15.9,36,23.9,58.4,25.9c4.7,0.4,9.4,0.5,14,0.6
		c1.6,0,2.6,0.4,3.4,1.8c3.5,5.7,5.5,11.9,5.4,18.7c0,1.9-0.5,2.7-2.7,2.3c-32.1-4.6-60.5-16.6-83.3-40.5c-0.5-0.5-1.1-1-1.7-1.5
		c-0.1-0.1-0.4,0.1-1.2,0.2c6,10.6,14,19.2,23.3,26.6c9.3,7.4,19.6,13.1,30.3,18.1C-381.8,253.6-416.8,209.3-412.5,175.1z"/>
	<path display="inline" d="M-402.8,286.2c-1.4-2.3-1.5-3.8,1.2-5.4c6.3-3.6,12.6-7,19.3-9.8c2.4-1,3.6-0.8,4.9,1.8
		c6.7,12.5,16.7,21.1,30.6,24.7c3.9,1,7.9,1,12.9,1.5c-7.3,6.1-14.9,9.1-23.2,10.3C-379.2,312.9-393.3,302.2-402.8,286.2z"/>
	<path display="inline" d="M-378,350.4c-0.6-2.6,0-4.3,1.5-6.2c10-12.1,22.6-20.9,35.5-29.6c-4.8,11.9-6.5,24.3-6.2,36.8
		c0.3,14.3,3.1,28.3,7.7,41.9c7.5,22.4,19,42.7,32.5,61.9c0.4,0.6,0.8,1.2,1.3,2c-1.5,0.9-2.2-0.4-3-1
		C-344.2,429.1-367.9,394.2-378,350.4z"/>
	<path display="inline" fill="#C82136" d="M-284,287.1c-1.2-3.1-3.5-5.6-5.2-8.4c-4.8-7.8-8.7-15.8-9-25.3
		c-0.2-7.4-2.8-14.4-7.2-20.5c-1.4-2-1.3-3.4,0.3-4.9c5.8-5.4,11.7-9.7,20.6-7.6c9.8,2.3,19.9,3.6,30,3.8
		c12.6,0.3,24.9-1.8,37.2-4.2c6.3-1.2,17.1,4,19.8,9.6c0.6,1.2-0.1,1.9-0.6,2.7c-5.7,8.3-8,17.7-8.1,27.6c0,3.1-1.4,5.6-2.6,8.2
		c-3.2,6.9-7.3,13.3-12,19.8c2,0.1,2.9-1,3.9-1.8c4.8-4.2,9.2-8.7,12.5-14.2c1.1-1.9,2.2-2.4,4.2-1.1c5.6,3.7,8.7,8.9,10,15.7
		c-5.8-3.9-5.8-3.8-9.4,2.1c-4.2,7-9.5,13.1-16.7,17.4c-3,1.8-5.7,2.6-9,0.3c-3.6-2.5-8-3.6-13.1-4.3c5.8,5.4,9.7,11.2,11.6,18.2
		c3,11.3,2,22.6-0.9,33.7c-0.6,2.2-2.3,3.6-4.2,4.7c-12.6,6.6-25.5,6.5-38.4,0.9c-3.7-1.6-5.8-4.5-6.6-8.6
		c-2.7-13.2-3.3-26.1,3.1-38.5c2-3.9,5-6.9,8.3-10.4c-5.3,0.7-9.9,2.2-14,4.7c-2.4,1.5-4.4,1.3-6.7,0c-8.4-4.6-14.3-11.6-19-19.7
		c-2.7-4.7-2.7-4.7-7-1.2c-0.3,0.2-0.6,0.3-1.3,0.6c1.3-7,4.7-12.1,10.4-15.8c2.1-1.3,2.8-0.1,3.8,1.5c3.9,6.1,8.5,11.7,14.7,15.6
		c0.3,0.2,0.6,0.4,0.9,0.6c0.3,0.3,0.6,0.6,0.9,0.9c0.1-0.1,0.2-0.3,0.3-0.4c-0.4-0.2-0.7-0.4-1.1-0.6
		C-283.7,287.8-283.8,287.5-284,287.1z"/>
	<path display="inline" fill="#C82136" d="M-276,228.4c13.2,9.7,19.9,23.3,24,39.4c4.2-16.1,10.8-29.7,24-39.4
		C-244,232.5-259.9,232.5-276,228.4z"/>
	<path display="inline" fill="#C82136" d="M-341,314.6c-4.8,11.9-6.5,24.3-6.2,36.8c0.3,14.3,3.1,28.3,7.7,41.9
		c7.5,22.4,19,42.7,32.5,61.9c0.4,0.6,0.8,1.2,1.3,2c-1.5,0.9-2.2-0.4-3-1c-35.6-27.1-59.3-62.1-69.4-105.9c-0.6-2.6,0-4.3,1.5-6.2
		C-366.5,332.2-353.9,323.4-341,314.6z"/>
	<path display="inline" fill="#C82136" d="M-197.3,456.9c18.1-25.5,32.7-52.3,38.8-83.1c3.9-19.4,4-38.7-3.3-57.5
		c-0.1-0.3,0-0.7,0-1.5c5.5,3.2,10.3,6.9,15,10.6c7.4,5.8,14.6,11.8,20.4,19.2c1.5,1.8,1.8,3.5,1.3,5.9
		c-6.8,29.3-21.3,54.5-40.5,77.2c-8.5,10.1-17.9,19.3-28.2,27.6c-0.7,0.6-1.4,1.1-2.1,1.6C-196.2,457-196.7,456.9-197.3,456.9z"/>
	<path display="inline" fill="#C82136" d="M-211.3,376.3c-1.4,5-2.6,9.9-2.5,15c0.1,3.4,0.2,6.8,1.6,10c1.3,3.1-1.3,4.5-2.8,6.4
		c-1.3,1.6-2.9,1.9-5,1c-21-9.3-42.1-9.5-63.1-0.2c-2.3,1-4.1,1-5.8-1c-1.6-1.9-3.7-3.3-2.4-6.5c2.7-7,1.9-14.2-0.1-21.2
		c-1-3.4-0.4-6.2,1.5-8.9c1-1.4,2.1-2.9,3.3-4.1c2-2.1,3.8-4.7,6.5-5.7c3.1-1.2,4.5,2.4,6.9,3.5c16,7.3,31.5,7.4,46.4-2.7
		c2-1.4,3.2-1.3,4.8,0.2c3.2,2.7,6.2,5.6,8.5,9.1C-212.4,372.8-211.7,374.6-211.3,376.3z"/>
	<path display="inline" fill="#C82136" d="M-260.5,389.5c-5.7-4.2-10.3-9.2-13.2-15.5c-2.6-5.4-3.1-5.6-7.4-1.1
		c-1,1-1.9,2.1-2.6,3.3c-2.6,4.2-2.3,5.9,1.8,8.8C-275.5,389.5-268.1,389.7-260.5,389.5z"/>
	<path display="inline" fill="#C82136" d="M-243.5,389.9c6.1,0.1,11.1-0.3,16.1-1.9c4.1-1.3,8.7-3,9.5-7.3c0.8-4.5-3.5-7.5-6.7-10.3
		c-1.7-1.4-2.8-1.7-3.7,1c-1,3.4-2.9,6.5-5.1,9.2C-236.2,383.9-239.4,386.7-243.5,389.9z"/>
	<path display="inline" fill="#FDFDFD" d="M-103.7,213.8c-1.7,0-2.1,0.7-2.6,1.3c-20.7,22.4-46.8,34.8-76.4,40.4
		c-2.2,0.4-4.6,0.3-6.7,1.1c-4,1.4-4.1-0.9-4-3.7c0.1-2.9,0.7-5.8,1.6-8.5c3-9.6,3.4-9.9,13.1-10.3c25.9-1,49.2-8.7,67.7-27.7
		c8.8-9,15.4-19.5,20.3-31.2c-1.5,24.5-9.5,46.2-27.5,63.5c-11.5,11.1-25.3,18.1-40.9,21.5C-136.4,250.1-116.8,236.5-103.7,213.8z"
		/>
	<path display="inline" fill="#FDFDFD" d="M-345.3,259.8c-36.5-6.1-71.5-50.4-67.1-84.7c5,12.5,11.8,23.3,21.1,32.4
		c16.2,15.9,36,23.9,58.4,25.9c4.7,0.4,9.4,0.5,14,0.6c1.6,0,2.6,0.4,3.4,1.8c3.5,5.7,5.5,11.9,5.4,18.7c0,1.9-0.5,2.7-2.7,2.3
		c-32.1-4.6-60.5-16.6-83.3-40.5c-0.5-0.5-1.1-1-1.7-1.5c-0.1-0.1-0.4,0.1-1.2,0.2c6,10.6,14,19.2,23.3,26.6
		C-366.3,249.1-356,254.8-345.3,259.8z"/>
	<path display="inline" fill="#FDFDFD" d="M-398.5,214c-0.1-0.1-0.2-0.2-0.3-0.3c-0.1,0.2-0.2,0.3-0.2,0.5c0,0.1,0.2,0.2,0.2,0.2
		C-398.7,214.3-398.6,214.2-398.5,214z"/>
	<path display="inline" fill="#C82136" d="M-170.5,298.7c19.3,0.7,33.1-7.4,42.8-22.8c3.7-5.8,3.6-5.9,10.1-3.2
		c5.7,2.4,11.1,5.5,16.4,8.7c1.5,0.9,2.3,1.7,1.3,3.6c-6.7,11.7-15.4,21.2-29.2,24.1C-144.2,312.2-157.8,308.6-170.5,298.7z"/>
	<path display="inline" fill="#C82136" d="M-333.9,299.2c-7.3,6.1-14.9,9.1-23.2,10.3c-22.2,3.4-36.3-7.3-45.8-23.3
		c-1.4-2.3-1.5-3.8,1.2-5.4c6.3-3.6,12.6-7,19.3-9.8c2.4-1,3.6-0.8,4.9,1.8c6.7,12.5,16.7,21.1,30.6,24.7
		C-342.9,298.6-338.9,298.7-333.9,299.2z"/>
	<path display="inline" fill="#C82136" d="M-179.8,317.4c2.5,6.4,2.7,13.1,4.3,19.5c2.1,8.8-0.6,15.2-6.6,21.8
		c-10.3,11.4-17.7,24.9-19.5,40.4c-0.9,8-4.4,13.5-10.6,18.2c-2.9,2.2-4.6,5.9-8,7.9c-2.5,1.4-4.8,2.2-7.9,1.4
		c-15-3.9-30.1-4-45.1-0.4c-7.6,1.8-11.8-1.5-15.9-6.4c-1.2-1.5-2.5-2.8-4-4c-4.5-3.8-7.8-8-8.4-14.5c-1.8-17.1-9.9-31.5-21-44.2
		c-4.7-5.3-7.6-10.3-6.1-17.7c1.6-7.9,2.1-16,4.1-24.2c1.1,1.5,0.7,2.9,0.6,4.1c-0.4,8.1-0.9,16.2-1.4,24.2
		c-0.2,2.8,0.5,4.9,2.5,7.1c11.5,12.8,20.6,26.9,24.3,44c0.5,2.3,1.1,4.7,1.1,7.1c0.1,2.6,0.8,4.7,2.4,6.6
		c3.8,4.3,8.4,7.9,12.1,12.3c1.8,2.1,4.6,2.6,7.7,1.9c15.4-3.6,30.8-3.5,46.3-0.3c5,1.1,8.7-0.4,11.5-4.9c1.2-1.9,2.6-3.2,4.4-4.5
		c4.1-3,6.6-6.7,7.1-12.2c1.6-15.3,8.5-28.5,17.5-40.6c1.9-2.5,3.6-5.3,6-7.3c3.5-3,4.1-6.5,3.9-10.8c-0.4-7.8-0.3-15.7-1.6-23.4
		C-180.2,318.1-179.9,317.7-179.8,317.4z"/>
	<path display="inline" fill="#C82136" d="M-209,392.6c-0.5-5.8,0.6-10.4,2-14.8c0.6-1.9,0.5-3.6-0.4-5.5
		c-2.8-6.2-6.9-11.5-12.3-15.6c-1.7-1.3-2.3-2.4-1.8-4.7c2-8.8,3.7-17.8,5.5-26.9c3.8,1.8,7,4.2,11.6,3.1c-2.2-3.1-4.8-5.6-5.9-9.6
		c8.5,0.7,15.3-1.9,20.9-9.4c1.2,6.9,3.1,13.2,0.3,19.3c-4.8,10.4-12.8,17.8-23.2,22.5c-2.8,1.2-3.1,2-0.9,4.3
		c2.9,2.8,5.1,6.3,6.8,10c2.5,5.2,4.3,10.3,0.9,16.1C-207.2,384.4-207.7,388.2-209,392.6z"/>
	<path display="inline" fill="#C82136" d="M-314.2,309.3c5.2,6.6,11.2,9.9,18.9,9.4c2.1-0.1,1.9,0.9,1.2,2.4
		c-1.5,2.9-3.6,5.4-6.5,8.1c5.2-0.2,9.1-1.7,13-4.2c2,9.7,3.9,19.1,5.9,28.4c0.3,1.5-0.6,2-1.5,2.7c-3.3,2.7-6.4,5.8-8.9,9.3
		c-3.6,5-6,10-3.4,16.4c1.4,3.5,1.6,7.4,1,12.3c-1.5-6.9-3.1-12.7-5.7-18.3c-0.5-1,0-2.2,0.3-3.3c1.9-6.7,5.1-12.7,10-17.7
		c1.9-1.9,1.4-2.6-0.8-3.5c-7.8-3.4-14.2-8.6-19.4-15.4c-4.5-5.8-6.4-12.2-5.3-19.5C-315.1,314.3-314.7,312.3-314.2,309.3z"/>
	<path display="inline" fill="#C82136" d="M-251.9,416c-7.5,0.2-16.1,0.7-24.5,2.4c-2.8,0.6-6.3-2-6.7-4.6c-0.2-1.3,0.7-1.4,1.5-1.7
		c12-4.3,24.5-6.1,37.2-5c6.9,0.6,13.8,1.8,20.3,4.2c1.4,0.5,4,0,3.8,2.6c-0.2,2.4-4,4.9-6.4,4.4
		C-234.7,416.8-242.8,416.1-251.9,416z"/>
	<path display="inline" fill="#FDFDFD" d="M-294.3,310c-9.1,1.5-12.4-0.9-12.2-9.4C-302.9,304.6-299.4,307.8-294.3,310z"/>
	<path display="inline" fill="#FDFDFD" d="M-197.3,300.9c1.2,7.6-2.8,10.7-11.7,9.2C-204.3,307.8-200.6,304.8-197.3,300.9z"/>
	<path display="inline" fill="#232323" d="M-283.5,288.2c0.4,0.2,0.7,0.4,1.1,0.6c-0.1,0.1-0.2,0.3-0.3,0.4
		c-0.3-0.3-0.6-0.6-0.9-0.9C-283.6,288.3-283.5,288.2-283.5,288.2z"/>
	<path display="inline" fill="#232323" d="M-284,287.1c0.2,0.3,0.3,0.7,0.5,1c0,0-0.1,0.1-0.1,0.1c-0.3-0.2-0.6-0.4-0.9-0.6
		C-284.3,287.5-284.2,287.3-284,287.1z"/>
	<path display="inline" fill="#232323" d="M-398.5,214c-0.1,0.2-0.2,0.3-0.3,0.5c-0.1-0.1-0.3-0.2-0.2-0.2c0-0.2,0.2-0.3,0.2-0.5
		C-398.7,213.8-398.6,213.9-398.5,214z"/>
	<path display="inline" d="M-252,267.8c4.2-16.1,10.8-29.7,24-39.4c-16,4.1-32,4.1-48.1,0C-262.8,238.1-256.1,251.7-252,267.8z"/>
	<path display="inline" d="M-273.8,373.9c-2.6-5.4-3.1-5.6-7.4-1.1c-1,1-1.9,2.1-2.6,3.3c-2.6,4.2-2.3,5.9,1.8,8.8
		c6.4,4.6,13.8,4.8,21.4,4.6C-266.2,385.2-270.8,380.3-273.8,373.9z"/>
	<path display="inline" d="M-228.4,371.4c-1,3.4-2.9,6.5-5.1,9.2c-2.7,3.3-5.9,6.1-10,9.2c6.1,0.1,11.1-0.3,16.1-1.9
		c4.1-1.3,8.7-3,9.5-7.3c0.8-4.5-3.5-7.5-6.7-10.3C-226.4,369-227.5,368.7-228.4,371.4z"/>
	<polygon display="inline" fill="#FFFFFF" points="-399.7,466 -390,466 -390,503 -399,503 -399,497.6 -399,490.2 -399,484.9 
		-399,478.8 -405.4,490.2 -409.9,497.6 -412.9,503 -422.1,503 	"/>
	<polygon display="inline" fill="#FFFFFF" points="-372.4,466 -367,466 -367,485.3 -367,503 -371.1,503 -376.5,503 -388,503 
		-388,499.5 -388,493.8 -388,491 -379,491 -379,494 -376,494 -376,485.3 -376,474 -381,474 -381,466 -376,466 	"/>
	<path display="inline" fill="#FFFFFF" d="M-336.9,491.3c0,3.4-1.4,6.1-3.4,8.2c-3.5,2.8-6.2,3.4-12.3,3.4H-365v-8h14.7
		c0.3,0,0.5-0.1,0.9-0.1c0.6-0.2,1.2-0.2,2-0.6c0.8-0.8,1.4-1.4,1.4-2.8c0-2.1-0.8-2.8-1.4-3.5h-2.8H-365v-9h12h2.5
		c0.7-0.7,1.3-1.3,1.3-2.5c0-1.3-0.6-1.9-1.3-2.5h-2.5h-12v-8h13.7c4.1,0,6.9,0.6,8.9,2c2.1,2.1,3.5,4.1,3.5,7.5
		c0,2.8-1.4,5.5-4.1,7.6C-337.5,485.1-336.9,490.1-336.9,491.3z"/>
	<rect x="-336" y="485" display="inline" fill="#FFFFFF" width="14" height="8"/>
	<polygon display="inline" fill="#FFFFFF" points="-301.6,466 -289.5,466 -301,489.3 -301,503 -311,503 -311,489.8 -321,466 
		-314.1,466 -311.7,466 -306,466 -306,473 -309.1,473 -306.7,481.4 	"/>
	<path display="inline" fill="#FFFFFF" d="M-261,466v21.4c0,6-1.4,9.3-3.4,11.3c-2.7,2.7-6,4-10.7,4c-2.5,0-7.3-0.6-9.9-4
		c-3.4-3.3-4-6-4-11.3V466h4.7h4.7h2.6v8h-2v13.4c0,1.4,0,3.3,0.7,4.7c0.6,1.3,1.9,2.7,3.8,2.7c2.6,0,3.2-1.3,3.9-2.7
		c0.7-1.3,0.7-2.7,0.7-4.7V474h-3v-8h2.7h4.6H-261z"/>
	<polygon display="inline" fill="#FFFFFF" points="-232.7,466 -228,466 -228,503 -237.6,503 -250,484.5 -250,493 -258,493 -258,466 
		-250,466 -236,482 -236.7,474 -240,474 -240,466 -236.7,466 	"/>
	<path display="inline" fill="#FFFFFF" d="M-184.5,482l-13.7,21h-9.1c-11.2,0-19.1-8.6-19.1-18.5c0-11.2,8.6-18.5,19.1-18.5h21.6
		l-8,8h-3.3h-9.7h-0.7h-0.6c-3.9,0-9.1,3.3-9.1,10.4s5.2,10.4,9.7,10.4c2,0,3.9-0.6,5.2-1.9c1.3-0.7,2.6-2,2.6-3.9h-3.3l-7-7h22.2
		H-184.5z"/>
	<path display="inline" fill="#FFFFFF" d="M-153.9,491.3c0,3.4-1.4,6.1-3.4,8.2c-3.5,2.8-6.2,3.4-12.3,3.4H-182v-8h14.7
		c0.3,0,0.5-0.1,0.9-0.1c0.6-0.2,1.2-0.2,2-0.6c0.8-0.8,1.4-1.4,1.4-2.8c0-2.1-0.8-2.8-1.4-3.5h-2.8H-182v-9h12h2.5
		c0.7-0.7,1.3-1.3,1.3-2.5c0-1.3-0.6-1.9-1.3-2.5h-2.5h-12v-8h13.7c4.1,0,6.9,0.6,8.9,2c2.1,2.1,3.5,4.1,3.5,7.5
		c0,2.8-1.4,5.5-4.1,7.6C-154.5,485.1-153.9,490.1-153.9,491.3z"/>
	<path display="inline" fill="#FFFFFF" d="M-124,466v21.4c0,6-1.4,9.3-3.4,11.3c-2.7,2.7-6,4-10.7,4c-2.5,0-7.3-0.6-9.9-4
		c-3.4-3.3-4-6-4-11.3V466h4.7h4.7h2.6v8h-3v13.4c0,1.4,0,3.3,0.7,4.7c0.6,1.3,1.9,2.7,3.8,2.7c2.6,0,3.2-1.3,3.9-2.7
		c0.7-1.3,0.7-2.7,0.7-4.7V474h-2v-8h2.7h4.6H-124z"/>
	<polygon display="inline" fill="#FFFFFF" points="-110,491 -102,491 -102,494.5 -102,499.5 -102,503 -123,503 -123,466 -113,466 
		-113,494 -110,494 	"/>
	<polygon display="inline" fill="#FFFFFF" points="-89,491 -81,491 -81,494.5 -81,499.5 -81,503 -101,503 -101,466 -91,466 -91,494 
		-89,494 	"/>
</g>
</svg>
