<?xml version="1.0" encoding="utf-8"?>
<!-- Generator: Adobe Illustrator 24.1.2, SVG Export Plug-In . SVG Version: 6.00 Build 0)  -->
<svg version="1.1" id="Layer_1" xmlns="http://www.w3.org/2000/svg" xmlns:xlink="http://www.w3.org/1999/xlink" x="0px" y="0px"
	 viewBox="0 0 384 383" style="enable-background:new 0 0 384 383;" xml:space="preserve">
<style type="text/css">
	.st0{fill:#FFFFFF;}
</style>
<g>
	<g>
		<path class="st0" d="M127.6,146.7c9.8-3.5,19.9-5.2,30.2-6.3c15.1-1.6,30.2-1.5,45.3,0.1c7.2,0.7,14.5,1.5,21.6,3.3
			c11.6,2.9,23.2,5.9,34.1,11.1c4.3,2.1,8.5,4.4,12.5,6.9c4.9,3,6.3,9,3.5,13.9c-2.8,5-8.6,6.4-14,3.9c-7.2-3.4-14.4-6.5-21.6-9.8
			c-7.3-3.4-15.2-4.7-23-6.2c-18.6-3.5-37.3-4.2-56.1-2.1c-8.7,1-17.3,3-25.9,4.9c-7.3,1.6-13.5-2.7-13.5-10
			C120.7,151.9,123.2,148.3,127.6,146.7z"/>
		<path class="st0" d="M248,214.8c-4.9-2.6-10-5-15-7.6c-10.3-5.4-21.6-7.6-32.9-9.4c-14.8-2.3-29.6-2.5-44.4-0.1
			c-5.2,0.9-10.2,2.3-15.3,3.3c-2.2,0.4-4.5,0.7-6.6,0.2c-3.6-0.8-5.7-4.1-5.8-8.1c-0.1-3.9,2-7,5.6-8.2c2.5-0.8,5.1-1.2,7.6-2
			c12.3-3.7,24.9-5.3,37.6-4.8c9.8,0.4,19.7,1.1,29.3,3c12.4,2.4,24.7,5.8,36.2,11.6c4.3,2.1,8.4,4.6,12.4,7.1
			c2.7,1.7,4.1,4.3,4,7.3C260.7,214.1,254,217.9,248,214.8z"/>
		<path class="st0" d="M207.3,217.8c11.2,2.8,22,6.9,32.1,12.5c1.4,0.8,2.7,1.7,4,2.4c3.4,1.8,4.6,5.4,3.2,8.9
			c-1.6,3.7-4.9,5.3-8.7,3.8c-1.6-0.6-3.1-1.8-4.6-2.7c-9.8-5.3-20.1-9.1-31-11.4c-14.6-3.1-29.2-2.7-43.8-0.8
			c-5.4,0.7-10.6,2.1-16,3.2c-0.9,0.2-1.7,0.3-2.6,0.4c-3.7,0.3-5.8-1.3-7-5.1c-1-3.2,0.2-6.1,3.2-7.7c0.8-0.4,1.7-0.7,2.6-1
			c13.3-3.6,26.9-5.2,42-5.2C188.9,215.1,198.2,215.6,207.3,217.8z"/>
	</g>
	<path class="st0" d="M361.2,382H22.8C10.2,382,0,371.8,0,359.2V21.8C0,9.2,10.2-1,22.8-1h338.4C373.8-1,384,9.2,384,21.8v337.4
		C384,371.8,373.8,382,361.2,382z M166.9,79c-10.5,3.2-20.8,6.4-29.7,13.1c-5.3,4-10.7,8-15.7,12.4c-9.3,8.1-16.8,17.7-22.5,28.6
		c-3.2,6.1-6.2,12.5-8.4,19.1c-5.1,15.3-6.4,31.1-5.1,47.2C86.6,214,90.4,228,97.1,241c4.7,9.2,11,17.5,17.9,25.2
		c3.6,4,7.4,8.1,11.7,11.4c6.2,4.8,12.6,9.3,19.5,13.1c11.2,6.1,23.5,9.3,36.3,10.2c23,1.6,45.1-1.4,65.4-13.4
		c5.7-3.4,11.1-7,16.1-11.5c8.5-7.6,15.6-16.2,21.7-25.7c5.2-8.2,9.4-16.7,12.4-25.9c2.9-8.6,4.6-17.5,4.7-26.5
		c0.1-7.2,0.2-14.5-0.3-21.8c-1.3-18-7.1-34.5-16.9-49.6c-5.8-9-12.9-17.1-20.8-24.2c-5-4.5-10.5-8.5-16.2-12.1
		c-9.7-6.3-20.7-9.9-31.9-12.4c-7.3-1.7-15-1.9-19.8-2.4C184.9,75.9,175.8,76.2,166.9,79z"/>
</g>
</svg>
