<?xml version="1.0" encoding="utf-8"?>
<!-- Generator: Adobe Illustrator 24.1.2, SVG Export Plug-In . SVG Version: 6.00 Build 0)  -->
<svg version="1.1" xmlns="http://www.w3.org/2000/svg" xmlns:xlink="http://www.w3.org/1999/xlink" x="0px" y="0px"
	 viewBox="0 0 384 383" style="enable-background:new 0 0 384 383;" xml:space="preserve">
<style type="text/css">
	.st0{fill:#FFFFFF;}
</style>
<g id="Layer_1">
</g>
<g id="Layer_2">
	<g>
		<path class="st0" d="M362.1,383.1H21.9C9.8,383.1,0,373.3,0,361.3V21.9C0,9.8,9.8,0,21.9,0l340.2,0c12.1,0,21.9,9.8,21.9,21.8
			v339.4C383.9,373.3,374.2,383.1,362.1,383.1z M193.7,282.3c21.2-0.6,43.5-1.1,65.8-2.1c10-0.4,19.9-1.6,29.8-2.8
			c9.3-1.2,16.6-6.3,22.1-13.8c3.9-5.3,5.1-11.7,6.1-18.1c2.4-14.5,3.1-29,3.5-43.7c0.4-15.4,0.1-30.8-1.3-46.2
			c-0.8-8.1-2-16.1-3.5-24.1c-1.1-5.9-3.8-11-8-15.4c-6.3-6.5-13.9-9.7-22.7-10.5c-11.1-1.1-22.2-2.3-33.4-2.7
			c-20.3-0.8-40.6-1.2-60.9-1.4c-23.5-0.2-47.1,0.3-70.6,1.9c-8.8,0.6-17.6,1.4-26.3,2.6c-11.7,1.7-19.8,8.8-24.9,19.1
			c-1.8,3.7-2.6,8.1-3.3,12.2c-2.5,14.6-3.2,29.4-3.5,44.1c-0.2,10.3,0,20.5,0.3,30.8c0.4,11.4,1.2,22.7,3.1,33.9
			c1,5.7,2.2,11.2,5.6,16.2c6.2,9.1,14.6,14.3,25.3,15.4c11.3,1.2,22.6,2.3,34,2.8C151.5,281.4,172,281.7,193.7,282.3z"/>
		<path class="st0" d="M165.9,230.6v-77.7c22.6,13,44.9,25.9,67.5,38.9C210.8,204.8,188.5,217.6,165.9,230.6z"/>
	</g>
</g>
</svg>
